 http://img835.imageshack.us/img835/8940/738062dxd.jpg

Country.......: USA
Genre.........: Horror
Date release..: 27.01.2011 [World]
Director......: John Pogue
Writers.......: John Pogue, John Erick Dowdle
Duration......: 86 min.
More..........: http://www.imdb.com/title/tt1699231
Trailer.......: http://www.imdb.com/video/screenplay/vi1274649625
Trailer.......:

Pilot :
A plane is taken over by a mysterious virus. When the plane lands it is placed under quarantine. Now a group of survivors must band together to survive the quarantine. 

Cats :
George Back   	 ...  	Ralph
Andrew Benator 	... 	Co-Pilot Willsy
Jason Benjamin 	... 	CDC #1
Bre Blair 	... 	Paula
Lynn Cole 	... 	Bev
Josh Cooke 	... 	Henry
Michael L. Covington 	... 	Passenger
John Curran 	... 	Captain Forrest
Phillip DeVona 	... 	Nial
Julie Gribble 	... 	Susan
Keith Allen Hayes 	... 	Airline Passenger
Roger Herrera 	... 	Detective
Tyler Kunkle 	... 	Hvorst
Sandra Ellis Lafferty 	... 	Louise
Mattie Liptak 	... 	George 

Data Technical :
!!! SAMPLE !!!
Audio.....: English
Subtitles.: None
Format                           : AVI
Format/Info                      : Audio Video Interleave
File size                        : 708 MiB
Duration                         : 1h 26mn
Overall bit rate                 : 1 149 Kbps
Writing application              : Lavf52.22.1
Writing library                  : VirtualDub build 32842/release
Video
ID                               : 0
Format                           : MPEG-4 Visual
Format profile                   : Simple@L1
Format settings, BVOP            : No
Format settings, QPel            : No
Format settings, GMC             : No warppoints
Format settings, Matrix          : Default (H.263)
Codec ID                         : XVID
Codec ID/Hint                    : XviD
Duration                         : 1h 26mn
Bit rate                         : 1 008 Kbps
Width                            : 850 pixels
Height                           : 474 pixels
Display aspect ratio             : 16:9
Frame rate                       : 25.000 fps
Color space                      : YUV
Chroma subsampling               : 4:2:0
Bit depth                        : 8 bits
Scan type                        : Progressive
Bits/(Pixel*Frame)               : 0.100
Stream size                      : 621 MiB (88%)
Writing library                  : Lavc52.0.0
Audio
ID                               : 1
Format                           : MPEG Audio
Format version                   : Version 1
Format profile                   : Layer 3
Codec ID                         : 55
Codec ID/Hint                    : MP3
Duration                         : 1h 26mn
Bit rate mode                    : Constant
Bit rate                         : 128 Kbps
Channel(s)                       : 2 channels
Sampling rate                    : 44.1 KHz
Stream size                      : 78.9 MiB (11%)
Alignment                        : Aligned on interleaves
Interleave, duration             : 26 ms (0.65 video frame)
Interleave, preload duration     : 522 ms

Screen : 
http://img713.imageshack.us/img713/618/quarantine2theterminal2.jpg 
http://img39.imageshack.us/img39/618/quarantine2theterminal2.jpg 
http://img832.imageshack.us/img832/618/quarantine2theterminal2.jpg 
http://img3.imageshack.us/img3/618/quarantine2theterminal2.jpg 
http://img23.imageshack.us/img23/618/quarantine2theterminal2.jpg